<svg width="32" height="32" viewBox="0 0 32 32" fill="#000000" xmlns="http://www.w3.org/2000/svg">
<path fill-rule="evenodd" clip-rule="evenodd" d="M21.1155 10.6324C20.1843 13.2355 18.8403 15.0062 17.751 16.4413C17.6829 16.531 17.6158 16.6194 17.5499 16.7066C16.3499 18.2938 15.6571 19.3479 15.6571 20.837C15.6571 23.5596 18.0315 25.8197 21.1429 25.8197C24.2078 25.8197 26.6286 23.553 26.6286 20.837C26.6286 19.3286 25.9292 18.2895 24.7166 16.7165C24.6546 16.6362 24.5917 16.5548 24.5279 16.4724C23.4217 15.0423 22.0538 13.274 21.1155 10.6324ZM22.2679 9.77602C21.9464 8.74228 20.3393 8.6906 19.9643 9.77602C19.1016 12.42 17.7822 14.1595 16.6323 15.6756C15.3543 17.3605 14.2857 18.7694 14.2857 20.837C14.2857 24.3518 17.3393 27.1429 21.1429 27.1429C24.8929 27.1429 28 24.3518 28 20.837C28 18.7506 26.9252 17.3602 25.6401 15.6978C24.4738 14.1891 23.1344 12.4564 22.2679 9.77602ZM12.0357 4.34889C12.1964 3.8837 12.8929 3.8837 13.0536 4.34889C13.0885 4.46121 13.1251 4.56992 13.1633 4.67526C13.1683 4.68902 13.1733 4.70271 13.1783 4.71636C13.2052 4.78919 13.2328 4.86041 13.261 4.9301C13.2652 4.9405 13.2694 4.95087 13.2737 4.9612C13.6418 5.85785 14.1162 6.49938 14.5383 7.07012C15.1015 7.83157 15.5714 8.46703 15.5714 9.41421C15.5714 11.0165 14.2321 12.257 12.5714 12.257C10.9107 12.257 9.57143 11.0165 9.57143 9.41421C9.57143 8.46282 10.0307 7.82593 10.5832 7.05997C10.9927 6.49204 11.4535 5.85315 11.8161 4.96248C11.8204 4.95204 11.8246 4.94157 11.8289 4.93106C11.857 4.86102 11.8845 4.78944 11.9114 4.71622C11.9164 4.70259 11.9214 4.68891 11.9263 4.67517C11.9643 4.56985 12.0008 4.46117 12.0357 4.34889ZM12.5485 6.55383C12.2614 7.05069 11.9677 7.45741 11.7182 7.80296C11.6878 7.84502 11.6581 7.88618 11.6291 7.92648C11.1128 8.64456 10.9429 8.9611 10.9429 9.41421C10.9429 10.2547 11.6356 10.9338 12.5714 10.9338C13.5072 10.9338 14.2 10.2547 14.2 9.41421C14.2 8.97354 14.0306 8.66358 13.4965 7.93954C13.4688 7.90192 13.4403 7.86354 13.4113 7.82438C13.1521 7.47431 12.8459 7.06092 12.5485 6.55383ZM6.05765 17.8504C5.54136 18.5685 5.37143 18.885 5.37143 19.3381C5.37143 20.1786 6.06418 20.8577 7 20.8577C7.93582 20.8577 8.62857 20.1786 8.62857 19.3381C8.62857 18.8974 8.45917 18.5875 7.92507 17.8634C7.89732 17.8258 7.8689 17.7874 7.8399 17.7483C7.58065 17.3982 7.27451 16.9848 6.97702 16.4777C6.69001 16.9746 6.39628 17.3813 6.14672 17.7269C6.11635 17.7689 6.08663 17.8101 6.05765 17.8504ZM6.24472 14.8864C5.88207 15.7771 5.42131 16.4159 5.01172 16.9839C4.45932 17.7498 4 18.3867 4 19.3381C4 20.9404 5.33929 22.1809 7 22.1809C8.66071 22.1809 10 20.9404 10 19.3381C10 18.3909 9.53005 17.7555 8.96692 16.994C8.54482 16.4233 8.07038 15.7818 7.70226 14.8851C7.69801 14.8748 7.69378 14.8644 7.68957 14.854C7.66134 14.7843 7.63375 14.7131 7.60688 14.6403C7.60185 14.6266 7.59684 14.6129 7.59186 14.5992C7.55371 14.4938 7.51707 14.3851 7.48214 14.2728C7.32143 13.8076 6.625 13.8076 6.46429 14.2728C6.42937 14.3851 6.39284 14.4938 6.3549 14.5991C6.34995 14.6128 6.34497 14.6265 6.33997 14.6401C6.31312 14.7133 6.28558 14.7849 6.25743 14.855C6.25321 14.8655 6.24897 14.8759 6.24472 14.8864Z"/>
</svg>
